<svg width="915" height="450" viewBox="0 0 915 450" fill="none" xmlns="http://www.w3.org/2000/svg">
<g filter="url(#filter0_d_109_148)">
<path d="M183.395 343.416C183.139 341.966 182.883 340.387 182.627 338.68C182.371 336.974 182.115 335.352 181.859 333.816C181.603 332.28 181.347 330.958 181.091 329.848C180.921 328.739 180.793 328.014 180.707 327.672C179.342 328.184 177.806 328.782 176.099 329.464C174.393 330.147 172.686 330.915 170.979 331.768C169.273 332.536 167.651 333.347 166.115 334.2C164.579 334.968 163.299 335.694 162.275 336.376C160.313 337.656 158.819 338.936 157.795 340.216C156.771 341.496 156.259 343.032 156.259 344.824C156.259 347.299 156.985 349.475 158.435 351.352C159.886 353.23 162.147 354.168 165.219 354.168C166.841 354.168 168.505 353.87 170.211 353.272C172.003 352.675 173.625 351.992 175.075 351.224C176.611 350.456 177.934 349.688 179.043 348.92C180.153 348.152 180.921 347.555 181.347 347.128C182.03 346.446 182.542 345.891 182.883 345.464C183.31 344.952 183.481 344.27 183.395 343.416ZM179.683 323.576C179.171 320.931 178.574 318.584 177.891 316.536C177.209 314.403 176.355 312.654 175.331 311.288C174.307 309.838 173.07 308.771 171.619 308.088C170.169 307.32 168.377 306.936 166.243 306.936C164.366 306.936 162.617 307.278 160.995 307.96C159.459 308.643 158.094 309.454 156.899 310.392C155.79 311.331 154.894 312.27 154.211 313.208C153.614 314.147 153.273 314.872 153.187 315.384C153.102 316.067 152.718 316.408 152.035 316.408C150.841 316.408 149.731 315.982 148.707 315.128C147.683 314.275 147.171 313.251 147.171 312.056C147.171 311.374 147.257 310.862 147.427 310.52C149.39 309.411 151.779 308.216 154.595 306.936C157.411 305.656 160.313 304.462 163.299 303.352C166.371 302.243 169.401 301.347 172.387 300.664C175.374 299.896 178.062 299.512 180.451 299.512C184.035 299.512 186.766 300.024 188.643 301.048C190.606 302.072 192.057 303.523 192.995 305.4C193.934 307.278 194.489 309.496 194.659 312.056C194.915 314.531 195.129 317.219 195.299 320.12C195.555 324.472 195.897 328.696 196.323 332.792C196.75 336.803 197.39 340.387 198.243 343.544C199.097 346.616 200.163 349.134 201.443 351.096C202.809 352.974 204.473 353.912 206.435 353.912C207.374 353.912 208.398 353.742 209.507 353.4C210.617 353.059 211.683 352.675 212.707 352.248C213.731 351.736 214.627 351.267 215.395 350.84C216.249 350.328 216.803 349.987 217.059 349.816C217.827 349.816 218.297 350.2 218.467 350.968C218.467 351.395 218.382 351.779 218.211 352.12C218.041 352.291 217.401 352.718 216.291 353.4C215.182 354.083 213.817 354.894 212.195 355.832C210.574 356.771 208.782 357.795 206.819 358.904C204.857 359.928 202.894 360.91 200.931 361.848C199.054 362.787 197.305 363.555 195.683 364.152C194.062 364.75 192.782 365.048 191.843 365.048C190.734 365.048 189.753 364.579 188.899 363.64C188.131 362.787 187.449 361.635 186.851 360.184C186.254 358.648 185.742 356.899 185.315 354.936C184.889 352.974 184.505 350.926 184.163 348.792C182.627 350.072 180.665 351.608 178.275 353.4C175.886 355.107 173.283 356.728 170.467 358.264C167.651 359.8 164.75 361.123 161.763 362.232C158.862 363.256 156.046 363.768 153.315 363.768C151.011 363.768 149.006 363.427 147.299 362.744C145.593 361.976 144.142 360.995 142.947 359.8C141.838 358.606 140.985 357.24 140.387 355.704C139.875 354.083 139.619 352.419 139.619 350.712C139.619 347.982 140.43 345.763 142.051 344.056C143.758 342.264 146.361 340.43 149.859 338.552C151.481 337.699 153.742 336.59 156.643 335.224C159.545 333.774 162.489 332.323 165.475 330.872C168.547 329.422 171.363 328.056 173.923 326.776C176.569 325.411 178.489 324.344 179.683 323.576ZM232.522 329.592C232.437 330.36 232.352 331.043 232.266 331.64C232.181 332.238 232.096 332.92 232.01 333.688C232.01 334.456 231.968 335.438 231.882 336.632C231.882 337.742 231.882 339.235 231.882 341.112C231.882 344.184 231.968 346.702 232.138 348.664C232.394 350.627 232.736 352.206 233.162 353.4C233.589 354.51 234.101 355.278 234.698 355.704C235.381 356.131 236.192 356.344 237.13 356.344C237.728 356.344 238.368 356.259 239.05 356.088C239.221 356.088 239.349 356.344 239.434 356.856C239.605 357.283 239.605 357.582 239.434 357.752C238.922 358.179 237.898 358.819 236.362 359.672C234.912 360.44 233.248 361.208 231.37 361.976C229.493 362.744 227.53 363.427 225.482 364.024C223.52 364.622 221.856 364.92 220.49 364.92C219.296 364.92 218.357 364.75 217.674 364.408C216.992 364.152 216.65 363.811 216.65 363.384C216.65 362.958 216.693 362.702 216.778 362.616C216.864 362.531 216.992 362.318 217.162 361.976C217.333 361.55 217.461 361.038 217.546 360.44C217.632 359.758 217.76 358.99 217.93 358.136C218.101 356.942 218.272 355.448 218.442 353.656C218.613 351.779 218.784 349.774 218.954 347.64C219.125 345.422 219.253 343.16 219.338 340.856C219.509 338.467 219.594 336.163 219.594 333.944C219.594 333.006 219.552 331.854 219.466 330.488C219.466 329.038 219.424 327.203 219.338 324.984C219.253 322.51 218.954 320.419 218.442 318.712C218.016 316.92 217.418 315.512 216.65 314.488C215.968 313.379 215.157 312.568 214.218 312.056C213.365 311.544 212.512 311.288 211.658 311.288C211.232 311.288 210.805 311.288 210.378 311.288C209.952 311.288 209.525 311.331 209.098 311.416C208.757 311.416 208.586 311.032 208.586 310.264C208.586 310.094 208.629 309.966 208.714 309.88C208.885 309.71 209.312 309.411 209.994 308.984C211.104 308.216 212.597 307.278 214.474 306.168C216.352 305.059 218.272 304.035 220.234 303.096C222.197 302.158 224.032 301.347 225.738 300.664C227.53 299.982 228.896 299.64 229.834 299.64C232.309 299.64 233.546 301.048 233.546 303.864C233.546 304.291 233.504 305.059 233.418 306.168C233.333 307.278 233.248 308.43 233.162 309.624C233.162 310.734 233.12 311.8 233.034 312.824C232.949 313.848 232.906 314.531 232.906 314.872C234.698 313.166 236.618 311.416 238.666 309.624C240.714 307.832 242.933 306.211 245.322 304.76C247.712 303.224 250.229 301.987 252.874 301.048C255.52 300.11 258.25 299.64 261.066 299.64C266.186 299.64 270.368 301.134 273.61 304.12C276.938 307.022 278.602 311.672 278.602 318.072C278.602 319.779 278.474 321.784 278.218 324.088C278.048 326.392 277.834 328.782 277.578 331.256C277.322 333.731 277.066 336.163 276.81 338.552C276.64 340.942 276.554 343.075 276.554 344.952C276.554 351.779 278.773 355.192 283.21 355.192C284.064 355.192 285.002 355.064 286.026 354.808C287.136 354.467 288.16 354.126 289.098 353.784C290.122 353.358 291.018 352.974 291.786 352.632C292.554 352.206 293.066 351.864 293.322 351.608C293.408 351.523 293.493 351.608 293.578 351.864C293.749 352.035 293.877 352.291 293.962 352.632C294.048 352.974 294.048 353.272 293.962 353.528C293.962 353.784 293.92 353.955 293.834 354.04C293.152 354.467 291.658 355.278 289.354 356.472C287.136 357.667 284.618 358.904 281.802 360.184C279.072 361.379 276.341 362.446 273.61 363.384C270.88 364.408 268.704 364.92 267.082 364.92C265.12 364.92 263.754 364.451 262.986 363.512C262.304 362.574 261.962 361.592 261.962 360.568C261.962 359.886 262.048 359.032 262.218 358.008C262.474 356.984 262.773 355.32 263.114 353.016C263.456 350.542 263.754 347.64 264.01 344.312C264.352 340.984 264.522 337.4 264.522 333.56C264.522 326.051 263.114 320.376 260.298 316.536C257.568 312.611 254.112 310.648 249.93 310.648C247.285 310.648 244.938 311.16 242.89 312.184C240.842 313.208 239.093 314.616 237.642 316.408C236.192 318.115 235.04 320.12 234.186 322.424C233.333 324.643 232.778 327.032 232.522 329.592ZM376.522 307.32C374.816 308.6 371.957 309.752 367.946 310.776C364.021 311.715 359.456 312.184 354.25 312.184C353.226 312.184 352.074 312.227 350.794 312.312C349.6 312.312 348.661 312.312 347.978 312.312C348.32 315.555 347.893 318.883 346.698 322.296C345.589 325.71 344.266 328.952 342.73 332.024C341.28 335.011 339.914 337.656 338.634 339.96C337.354 342.264 336.714 343.928 336.714 344.952C336.714 346.318 337.312 347.64 338.506 348.92C339.701 350.2 341.194 351.48 342.986 352.76C344.778 354.04 346.698 355.363 348.746 356.728C350.794 358.008 352.714 359.416 354.506 360.952C356.298 362.403 357.792 364.024 358.986 365.816C360.181 367.608 360.778 369.571 360.778 371.704C360.778 374.776 359.584 378.147 357.194 381.816C354.89 385.486 351.733 388.899 347.722 392.056C343.712 395.299 339.018 397.987 333.642 400.12C328.266 402.254 322.549 403.32 316.49 403.32C313.674 403.32 310.602 403.022 307.274 402.424C304.032 401.827 301.002 400.931 298.186 399.736C295.456 398.542 293.152 397.048 291.274 395.256C289.482 393.55 288.586 391.502 288.586 389.112C288.586 387.747 289.61 385.955 291.658 383.736C293.792 381.518 296.224 379.256 298.954 376.952C301.685 374.648 304.373 372.43 307.018 370.296C309.664 368.163 311.541 366.456 312.65 365.176C312.906 365.176 313.205 365.347 313.546 365.688C313.973 366.03 314.186 366.414 314.186 366.84C314.186 366.926 314.144 366.968 314.058 366.968C314.058 367.054 314.058 367.139 314.058 367.224C313.205 367.907 312.138 368.76 310.858 369.784C309.664 370.808 308.469 371.918 307.274 373.112C306.08 374.307 305.056 375.587 304.202 376.952C303.349 378.403 302.922 379.811 302.922 381.176C302.922 382.968 303.605 384.718 304.97 386.424C306.421 388.216 308.256 389.795 310.474 391.16C312.778 392.526 315.381 393.635 318.282 394.488C321.184 395.342 324.128 395.768 327.114 395.768C333.258 395.768 337.909 394.403 341.066 391.672C344.309 389.027 345.93 385.272 345.93 380.408C345.93 378.36 345.333 376.398 344.138 374.52C343.029 372.643 341.621 370.894 339.914 369.272C338.293 367.651 336.458 366.115 334.41 364.664C332.448 363.299 330.613 362.019 328.906 360.824C327.285 359.63 325.877 358.52 324.682 357.496C323.573 356.472 323.018 355.534 323.018 354.68C323.018 353.912 323.232 353.059 323.658 352.12C324.17 351.096 324.725 350.115 325.322 349.176C325.92 348.152 326.432 347.256 326.858 346.488C327.37 345.635 327.626 344.995 327.626 344.568C327.626 344.654 327.541 344.526 327.37 344.184C326.773 344.782 325.92 345.379 324.81 345.976C323.701 346.574 322.378 347.128 320.842 347.64C319.392 348.152 317.813 348.579 316.106 348.92C314.485 349.262 312.821 349.432 311.114 349.432C307.872 349.432 305.013 348.92 302.538 347.896C300.064 346.787 297.973 345.336 296.266 343.544C294.645 341.752 293.408 339.704 292.554 337.4C291.701 335.011 291.274 332.494 291.274 329.848C291.274 325.923 291.829 322.552 292.938 319.736C294.133 316.92 295.584 314.531 297.29 312.568C299.082 310.606 300.96 309.027 302.922 307.832C304.885 306.552 306.677 305.486 308.298 304.632C309.322 304.12 310.517 303.651 311.882 303.224C313.333 302.712 314.869 302.286 316.49 301.944C318.112 301.518 319.776 301.176 321.482 300.92C323.189 300.664 324.81 300.536 326.346 300.536C331.722 300.536 336.074 301.134 339.402 302.328C342.73 303.523 344.906 304.59 345.93 305.528C346.954 305.699 348.789 305.827 351.434 305.912C354.08 305.998 356.896 306.04 359.882 306.04C362.869 306.04 365.685 306.04 368.33 306.04C371.061 306.04 372.981 306.04 374.09 306.04C374.517 306.04 374.944 306.04 375.37 306.04C375.797 306.04 376.224 305.998 376.65 305.912C377.077 305.998 377.248 306.211 377.162 306.552C377.077 306.894 376.864 307.15 376.522 307.32ZM323.786 341.88C324.981 341.88 326.176 341.624 327.37 341.112C328.565 340.6 329.632 339.747 330.57 338.552C331.594 337.272 332.405 335.608 333.002 333.56C333.685 331.427 334.026 328.782 334.026 325.624C334.026 322.723 333.685 320.035 333.002 317.56C332.405 315.086 331.466 312.952 330.186 311.16C328.906 309.368 327.328 308.003 325.45 307.064C323.573 306.04 321.354 305.528 318.794 305.528C315.125 305.528 312.01 306.936 309.45 309.752C306.89 312.483 305.61 316.408 305.61 321.528C305.61 324.344 306.122 326.99 307.146 329.464C308.17 331.939 309.493 334.115 311.114 335.992C312.821 337.784 314.784 339.235 317.002 340.344C319.221 341.368 321.482 341.88 323.786 341.88ZM550.395 343.416C550.139 341.966 549.883 340.387 549.627 338.68C549.371 336.974 549.115 335.352 548.859 333.816C548.603 332.28 548.347 330.958 548.091 329.848C547.921 328.739 547.793 328.014 547.707 327.672C546.342 328.184 544.806 328.782 543.099 329.464C541.393 330.147 539.686 330.915 537.979 331.768C536.273 332.536 534.651 333.347 533.115 334.2C531.579 334.968 530.299 335.694 529.275 336.376C527.313 337.656 525.819 338.936 524.795 340.216C523.771 341.496 523.259 343.032 523.259 344.824C523.259 347.299 523.985 349.475 525.435 351.352C526.886 353.23 529.147 354.168 532.219 354.168C533.841 354.168 535.505 353.87 537.211 353.272C539.003 352.675 540.625 351.992 542.075 351.224C543.611 350.456 544.934 349.688 546.043 348.92C547.153 348.152 547.921 347.555 548.347 347.128C549.03 346.446 549.542 345.891 549.883 345.464C550.31 344.952 550.481 344.27 550.395 343.416ZM546.683 323.576C546.171 320.931 545.574 318.584 544.891 316.536C544.209 314.403 543.355 312.654 542.331 311.288C541.307 309.838 540.07 308.771 538.619 308.088C537.169 307.32 535.377 306.936 533.243 306.936C531.366 306.936 529.617 307.278 527.995 307.96C526.459 308.643 525.094 309.454 523.899 310.392C522.79 311.331 521.894 312.27 521.211 313.208C520.614 314.147 520.273 314.872 520.187 315.384C520.102 316.067 519.718 316.408 519.035 316.408C517.841 316.408 516.731 315.982 515.707 315.128C514.683 314.275 514.171 313.251 514.171 312.056C514.171 311.374 514.257 310.862 514.427 310.52C516.39 309.411 518.779 308.216 521.595 306.936C524.411 305.656 527.313 304.462 530.299 303.352C533.371 302.243 536.401 301.347 539.387 300.664C542.374 299.896 545.062 299.512 547.451 299.512C551.035 299.512 553.766 300.024 555.643 301.048C557.606 302.072 559.057 303.523 559.995 305.4C560.934 307.278 561.489 309.496 561.659 312.056C561.915 314.531 562.129 317.219 562.299 320.12C562.555 324.472 562.897 328.696 563.323 332.792C563.75 336.803 564.39 340.387 565.243 343.544C566.097 346.616 567.163 349.134 568.443 351.096C569.809 352.974 571.473 353.912 573.435 353.912C574.374 353.912 575.398 353.742 576.507 353.4C577.617 353.059 578.683 352.675 579.707 352.248C580.731 351.736 581.627 351.267 582.395 350.84C583.249 350.328 583.803 349.987 584.059 349.816C584.827 349.816 585.297 350.2 585.467 350.968C585.467 351.395 585.382 351.779 585.211 352.12C585.041 352.291 584.401 352.718 583.291 353.4C582.182 354.083 580.817 354.894 579.195 355.832C577.574 356.771 575.782 357.795 573.819 358.904C571.857 359.928 569.894 360.91 567.931 361.848C566.054 362.787 564.305 363.555 562.683 364.152C561.062 364.75 559.782 365.048 558.843 365.048C557.734 365.048 556.753 364.579 555.899 363.64C555.131 362.787 554.449 361.635 553.851 360.184C553.254 358.648 552.742 356.899 552.315 354.936C551.889 352.974 551.505 350.926 551.163 348.792C549.627 350.072 547.665 351.608 545.275 353.4C542.886 355.107 540.283 356.728 537.467 358.264C534.651 359.8 531.75 361.123 528.763 362.232C525.862 363.256 523.046 363.768 520.315 363.768C518.011 363.768 516.006 363.427 514.299 362.744C512.593 361.976 511.142 360.995 509.947 359.8C508.838 358.606 507.985 357.24 507.387 355.704C506.875 354.083 506.619 352.419 506.619 350.712C506.619 347.982 507.43 345.763 509.051 344.056C510.758 342.264 513.361 340.43 516.859 338.552C518.481 337.699 520.742 336.59 523.643 335.224C526.545 333.774 529.489 332.323 532.475 330.872C535.547 329.422 538.363 328.056 540.923 326.776C543.569 325.411 545.489 324.344 546.683 323.576ZM638.05 308.984C637.112 309.752 636.002 310.734 634.722 311.928C633.442 313.038 632.077 314.147 630.626 315.256C629.261 316.28 627.853 317.176 626.402 317.944C624.952 318.712 623.544 319.096 622.178 319.096C620.984 319.096 619.917 318.84 618.978 318.328C618.04 317.731 617.144 317.134 616.29 316.536C615.522 315.854 614.754 315.256 613.986 314.744C613.218 314.147 612.408 313.848 611.554 313.848C609.25 313.848 607.288 314.787 605.666 316.664C604.13 318.542 602.85 320.931 601.826 323.832C600.888 326.734 600.162 329.891 599.65 333.304C599.224 336.718 599.01 340.003 599.01 343.16C599.01 345.806 599.096 347.982 599.266 349.688C599.522 351.31 599.864 352.632 600.29 353.656C600.717 354.595 601.272 355.235 601.954 355.576C602.722 355.918 603.618 356.088 604.642 356.088C605.752 356.088 606.946 355.918 608.226 355.576C608.482 355.491 608.653 355.662 608.738 356.088C608.909 356.515 608.994 356.856 608.994 357.112C608.994 357.283 608.866 357.496 608.61 357.752C608.354 357.923 608.184 358.008 608.098 358.008C606.221 358.776 604.301 359.63 602.338 360.568C600.376 361.422 598.754 362.147 597.474 362.744C596.28 363.256 594.829 363.811 593.122 364.408C591.501 365.006 590.093 365.304 588.898 365.304C587.533 365.304 586.381 365.091 585.442 364.664C584.589 364.238 584.162 363.811 584.162 363.384C584.162 362.958 584.248 362.574 584.418 362.232C584.674 361.891 584.888 361.251 585.058 360.312C585.229 359.032 585.4 357.539 585.57 355.832C585.826 354.04 586.04 352.12 586.21 350.072C586.466 348.024 586.637 345.934 586.722 343.8C586.893 341.582 586.978 339.406 586.978 337.272C586.978 332.494 586.808 328.44 586.466 325.112C586.21 321.784 585.698 319.096 584.93 317.048C584.162 315 583.096 313.55 581.73 312.696C580.45 311.758 578.786 311.288 576.738 311.288C576.312 311.288 575.928 311.288 575.586 311.288C575.245 311.288 574.904 311.331 574.562 311.416C574.05 311.416 573.794 311.16 573.794 310.648C573.794 310.136 574.05 309.752 574.562 309.496C575.501 308.899 576.952 308.046 578.914 306.936C580.877 305.742 582.882 304.632 584.93 303.608C587.064 302.499 589.112 301.518 591.074 300.664C593.037 299.811 594.488 299.384 595.426 299.384C596.536 299.384 597.474 299.768 598.242 300.536C599.01 301.219 599.565 302.115 599.906 303.224C600.333 304.334 600.632 305.614 600.802 307.064C600.973 308.43 601.058 309.795 601.058 311.16C601.058 312.184 601.016 313.251 600.93 314.36C600.93 315.47 600.93 316.664 600.93 317.944C604.77 312.312 608.226 307.96 611.298 304.888C614.37 301.731 617.272 300.152 620.002 300.152C621.026 300.152 622.008 300.579 622.946 301.432C623.97 302.286 625.037 303.267 626.146 304.376C627.256 305.4 628.408 306.339 629.602 307.192C630.797 308.046 632.034 308.472 633.314 308.472C634.424 308.472 635.234 308.344 635.746 308.088C636.258 307.832 636.685 307.619 637.026 307.448C637.709 307.448 638.05 307.918 638.05 308.856V308.984ZM635.848 351.736C636.275 351.822 636.958 352.291 637.896 353.144C638.92 353.998 639.944 354.979 640.968 356.088C641.992 357.198 642.888 358.264 643.656 359.288C644.424 360.312 644.808 360.995 644.808 361.336C644.808 361.763 644.296 362.403 643.272 363.256C642.248 364.11 641.054 364.963 639.688 365.816C638.408 366.755 637.128 367.566 635.848 368.248C634.654 368.931 633.8 369.272 633.288 369.272C633.032 369.272 632.392 368.846 631.368 367.992C630.43 367.224 629.448 366.328 628.424 365.304C627.4 364.28 626.462 363.299 625.608 362.36C624.84 361.336 624.456 360.654 624.456 360.312C624.456 359.886 625.011 359.246 626.12 358.392C627.23 357.454 628.424 356.515 629.704 355.576C631.07 354.552 632.35 353.699 633.544 353.016C634.824 352.248 635.592 351.822 635.848 351.736ZM703.421 305.272C703.251 305.784 702.739 306.595 701.885 307.704C701.117 308.728 700.179 309.838 699.069 311.032C697.96 312.142 696.765 313.251 695.485 314.36C694.291 315.384 693.224 316.152 692.285 316.664C691.688 316.92 691.304 316.835 691.133 316.408C691.048 315.982 691.005 315.555 691.005 315.128C691.005 314.446 690.621 313.592 689.853 312.568C689.171 311.544 688.147 310.563 686.781 309.624C685.501 308.6 683.965 307.747 682.173 307.064C680.381 306.382 678.419 306.04 676.285 306.04C672.616 306.04 669.629 308.046 667.325 312.056C665.021 315.982 663.869 321.23 663.869 327.8C663.869 331.811 664.467 335.438 665.661 338.68C666.941 341.838 668.648 344.526 670.781 346.744C673 348.878 675.645 350.542 678.717 351.736C681.789 352.846 685.117 353.4 688.701 353.4C693.565 353.4 697.448 352.803 700.349 351.608C703.251 350.328 705.64 348.878 707.517 347.256C707.603 347.256 707.645 347.214 707.645 347.128C707.731 347.043 707.816 347 707.901 347C708.328 347 708.627 347.171 708.797 347.512C708.968 347.768 709.053 348.11 709.053 348.536C709.053 348.878 708.968 349.134 708.797 349.304C707.517 350.328 705.725 351.694 703.421 353.4C701.203 355.107 698.643 356.814 695.741 358.52C692.84 360.142 689.811 361.55 686.653 362.744C683.496 363.939 680.381 364.536 677.309 364.536C668.52 364.536 661.651 361.976 656.701 356.856C651.837 351.736 649.405 344.739 649.405 335.864C649.405 329.123 650.685 323.448 653.245 318.84C655.891 314.232 659.091 310.563 662.845 307.832C666.685 305.016 670.739 303.011 675.005 301.816C679.272 300.622 683.027 300.024 686.269 300.024C688.915 300.024 691.261 300.238 693.309 300.664C695.443 301.006 697.235 301.475 698.685 302.072C700.221 302.584 701.373 303.139 702.141 303.736C702.995 304.334 703.421 304.846 703.421 305.272ZM757.855 353.144C756.917 353.912 755.637 354.936 754.015 356.216C752.394 357.496 750.517 358.776 748.383 360.056C746.25 361.336 743.903 362.446 741.343 363.384C738.783 364.238 736.095 364.664 733.279 364.664C729.013 364.664 725.215 363.939 721.887 362.488C718.559 360.952 715.743 358.947 713.439 356.472C711.221 353.912 709.514 350.926 708.319 347.512C707.21 344.099 706.655 340.472 706.655 336.632C706.655 332.11 707.338 328.099 708.703 324.6C710.069 321.102 711.733 318.072 713.695 315.512C715.743 312.867 717.919 310.691 720.223 308.984C722.527 307.192 724.618 305.784 726.495 304.76C727.349 304.248 728.415 303.694 729.695 303.096C731.061 302.499 732.511 301.944 734.047 301.432C735.669 300.92 737.375 300.494 739.167 300.152C741.045 299.726 742.965 299.512 744.927 299.512C748.597 299.512 752.138 299.982 755.551 300.92C759.05 301.859 762.122 303.352 764.767 305.4C767.413 307.363 769.546 309.923 771.167 313.08C772.789 316.238 773.599 320.035 773.599 324.472C773.599 328.056 772.917 331.427 771.551 334.584C770.271 337.742 768.735 340.558 766.943 343.032C765.151 345.507 763.359 347.64 761.567 349.432C759.861 351.139 758.623 352.376 757.855 353.144ZM743.391 355.192C748.255 355.192 751.967 353.358 754.527 349.688C757.173 346.019 758.495 340.387 758.495 332.792C758.495 328.952 757.941 325.411 756.831 322.168C755.807 318.84 754.314 315.939 752.351 313.464C750.474 310.99 748.255 309.07 745.695 307.704C743.135 306.254 740.362 305.528 737.375 305.528C735.242 305.528 733.194 306.083 731.231 307.192C729.354 308.302 727.69 309.923 726.239 312.056C724.789 314.104 723.637 316.622 722.783 319.608C721.93 322.595 721.503 325.966 721.503 329.72C721.503 333.731 722.101 337.315 723.295 340.472C724.575 343.63 726.239 346.318 728.287 348.536C730.335 350.67 732.639 352.334 735.199 353.528C737.845 354.638 740.575 355.192 743.391 355.192ZM900.216 352.248C900.472 352.248 900.643 352.419 900.728 352.76C900.814 353.016 900.856 353.358 900.856 353.784C900.856 354.211 900.771 354.51 900.6 354.68C900.43 354.766 900.259 354.894 900.088 355.064C899.491 355.406 898.04 356.131 895.736 357.24C893.518 358.35 891 359.502 888.184 360.696C885.454 361.806 882.723 362.787 879.992 363.64C877.347 364.579 875.342 365.048 873.976 365.048C872.782 365.048 871.63 364.792 870.52 364.28C869.496 363.768 869.07 362.958 869.24 361.848C869.411 361.166 869.582 360.142 869.752 358.776C870.008 357.411 870.222 355.747 870.392 353.784C870.563 351.31 870.734 348.451 870.904 345.208C871.16 341.966 871.288 338.382 871.288 334.456C871.288 329.848 870.99 326.051 870.392 323.064C869.795 319.992 868.942 317.56 867.832 315.768C866.723 313.976 865.358 312.739 863.736 312.056C862.115 311.288 860.238 310.904 858.104 310.904C856.142 310.904 854.478 311.246 853.112 311.928C851.747 312.526 850.552 313.208 849.528 313.976C847.651 315.427 846.158 317.304 845.048 319.608C844.024 321.827 843.384 324.771 843.128 328.44C843.043 329.379 842.958 330.318 842.872 331.256C842.872 332.195 842.83 333.219 842.744 334.328C842.744 335.438 842.702 336.675 842.616 338.04C842.616 339.406 842.616 341.027 842.616 342.904C842.616 347.939 843 351.438 843.768 353.4C844.622 355.363 846.03 356.344 847.992 356.344C848.675 356.344 849.102 356.344 849.272 356.344C849.443 356.259 849.784 356.174 850.296 356.088C850.467 356.259 850.638 356.472 850.808 356.728C851.064 357.155 851.022 357.624 850.68 358.136C850.254 358.648 849.23 359.331 847.608 360.184C845.987 360.952 844.195 361.678 842.232 362.36C840.27 363.043 838.35 363.64 836.472 364.152C834.595 364.664 833.187 364.92 832.248 364.92C831.054 364.92 829.944 364.75 828.92 364.408C827.982 364.152 827.512 363.811 827.512 363.384C827.512 362.872 827.683 362.275 828.024 361.592C828.28 361.166 828.536 360.142 828.792 358.52C829.048 356.899 829.262 354.808 829.432 352.248C829.688 349.688 829.902 346.744 830.072 343.416C830.243 340.003 830.328 336.334 830.328 332.408C830.328 330.36 830.2 328.099 829.944 325.624C829.774 323.15 829.262 320.846 828.408 318.712C827.555 316.494 826.275 314.659 824.568 313.208C822.947 311.672 820.686 310.904 817.784 310.904C816.078 310.904 814.542 311.16 813.176 311.672C811.811 312.099 810.659 312.654 809.72 313.336C807.843 314.787 806.222 316.579 804.856 318.712C803.576 320.846 802.723 323.875 802.296 327.8C802.126 329.592 801.955 331.47 801.784 333.432C801.614 335.31 801.528 337.486 801.528 339.96C801.528 343.203 801.614 345.891 801.784 348.024C801.955 350.158 802.254 351.864 802.68 353.144C803.107 354.339 803.619 355.192 804.216 355.704C804.814 356.131 805.582 356.344 806.52 356.344C807.459 356.344 808.099 356.259 808.44 356.088C808.867 355.918 809.166 356.174 809.336 356.856C809.507 357.539 809.464 357.966 809.208 358.136C808.867 358.478 807.971 359.032 806.52 359.8C805.07 360.483 803.406 361.208 801.528 361.976C799.651 362.744 797.731 363.427 795.768 364.024C793.806 364.622 792.142 364.92 790.776 364.92C789.326 364.92 788.174 364.75 787.32 364.408C786.552 364.067 786.168 363.683 786.168 363.256C786.168 363.171 786.254 362.915 786.424 362.488C786.595 361.976 786.723 361.55 786.808 361.208C787.15 358.563 787.448 356.131 787.704 353.912C788.046 351.608 788.259 349.134 788.344 346.488C788.515 343.843 788.643 340.814 788.728 337.4C788.814 333.987 788.856 329.848 788.856 324.984C788.856 320.291 788.088 316.835 786.552 314.616C785.102 312.398 783.566 311.288 781.944 311.288C781.262 311.288 780.664 311.374 780.152 311.544C779.726 311.63 779.299 311.715 778.872 311.8C778.36 311.886 778.104 311.63 778.104 311.032V310.136C778.19 310.051 779.043 309.454 780.664 308.344C782.286 307.235 784.206 306.04 786.424 304.76C788.643 303.48 790.947 302.328 793.336 301.304C795.726 300.195 797.688 299.64 799.224 299.64C800.248 299.64 801.102 299.939 801.784 300.536C802.552 301.134 802.936 302.243 802.936 303.864C802.936 304.632 802.894 305.486 802.808 306.424C802.808 307.363 802.766 308.344 802.68 309.368C802.68 310.392 802.638 311.416 802.552 312.44C802.467 313.379 802.424 314.19 802.424 314.872C803.619 313.763 805.112 312.312 806.904 310.52C808.782 308.728 810.872 307.022 813.176 305.4C815.48 303.779 817.955 302.371 820.6 301.176C823.331 299.982 826.19 299.384 829.176 299.384C833.102 299.384 836.302 300.536 838.776 302.84C841.251 305.144 842.574 309.155 842.744 314.872C844.11 313.592 845.774 312.056 847.736 310.264C849.699 308.472 851.875 306.766 854.264 305.144C856.739 303.523 859.342 302.158 862.072 301.048C864.803 299.939 867.576 299.384 870.392 299.384C880.291 299.384 885.24 304.632 885.24 315.128C885.24 316.835 885.155 318.798 884.984 321.016C884.814 323.235 884.6 325.582 884.344 328.056C884.088 330.446 883.875 332.835 883.704 335.224C883.534 337.614 883.448 339.79 883.448 341.752C883.448 350.627 885.795 355.064 890.488 355.064C891.256 355.064 892.11 354.979 893.048 354.808C893.987 354.552 894.926 354.296 895.864 354.04C896.803 353.699 897.656 353.4 898.424 353.144C899.192 352.803 899.747 352.504 900.088 352.248H900.216Z" fill="url(#paint0_linear_109_148)"/>
<path d="M414.855 353.144C413.917 353.912 412.637 354.936 411.015 356.216C409.394 357.496 407.517 358.776 405.383 360.056C403.25 361.336 400.903 362.446 398.343 363.384C395.783 364.238 393.095 364.664 390.279 364.664C386.013 364.664 382.215 363.939 378.887 362.488C375.559 360.952 372.743 358.947 370.439 356.472C368.221 353.912 366.514 350.926 365.319 347.512C364.21 344.099 363.655 340.472 363.655 336.632C363.655 332.11 364.338 328.099 365.703 324.6C367.069 321.102 368.733 318.072 370.695 315.512C372.743 312.867 374.919 310.691 377.223 308.984C379.527 307.192 381.618 305.784 383.495 304.76C384.349 304.248 385.415 303.694 386.695 303.096C388.061 302.499 389.511 301.944 391.047 301.432C392.669 300.92 394.375 300.494 396.167 300.152C398.045 299.726 399.965 299.512 401.927 299.512C405.597 299.512 409.138 299.982 412.551 300.92C416.05 301.859 419.122 303.352 421.767 305.4C424.413 307.363 426.546 309.923 428.167 313.08C429.789 316.238 430.599 320.035 430.599 324.472C430.599 328.056 429.917 331.427 428.551 334.584C427.271 337.742 425.735 340.558 423.943 343.032C422.151 345.507 420.359 347.64 418.567 349.432C416.861 351.139 415.623 352.376 414.855 353.144ZM400.391 355.192C405.255 355.192 408.967 353.358 411.527 349.688C414.173 346.019 415.495 340.387 415.495 332.792C415.495 328.952 414.941 325.411 413.831 322.168C412.807 318.84 411.314 315.939 409.351 313.464C407.474 310.99 405.255 309.07 402.695 307.704C400.135 306.254 397.362 305.528 394.375 305.528C392.242 305.528 390.194 306.083 388.231 307.192C386.354 308.302 384.69 309.923 383.239 312.056C381.789 314.104 380.637 316.622 379.783 319.608C378.93 322.595 378.503 325.966 378.503 329.72C378.503 333.731 379.101 337.315 380.295 340.472C381.575 343.63 383.239 346.318 385.287 348.536C387.335 350.67 389.639 352.334 392.199 353.528C394.845 354.638 397.575 355.192 400.391 355.192ZM488.48 353.144C487.542 353.912 486.262 354.936 484.64 356.216C483.019 357.496 481.142 358.776 479.008 360.056C476.875 361.336 474.528 362.446 471.968 363.384C469.408 364.238 466.72 364.664 463.904 364.664C459.638 364.664 455.84 363.939 452.512 362.488C449.184 360.952 446.368 358.947 444.064 356.472C441.846 353.912 440.139 350.926 438.944 347.512C437.835 344.099 437.28 340.472 437.28 336.632C437.28 332.11 437.963 328.099 439.328 324.6C440.694 321.102 442.358 318.072 444.32 315.512C446.368 312.867 448.544 310.691 450.848 308.984C453.152 307.192 455.243 305.784 457.12 304.76C457.974 304.248 459.04 303.694 460.32 303.096C461.686 302.499 463.136 301.944 464.672 301.432C466.294 300.92 468 300.494 469.792 300.152C471.67 299.726 473.59 299.512 475.552 299.512C479.222 299.512 482.763 299.982 486.176 300.92C489.675 301.859 492.747 303.352 495.392 305.4C498.038 307.363 500.171 309.923 501.792 313.08C503.414 316.238 504.224 320.035 504.224 324.472C504.224 328.056 503.542 331.427 502.176 334.584C500.896 337.742 499.36 340.558 497.568 343.032C495.776 345.507 493.984 347.64 492.192 349.432C490.486 351.139 489.248 352.376 488.48 353.144ZM474.016 355.192C478.88 355.192 482.592 353.358 485.152 349.688C487.798 346.019 489.12 340.387 489.12 332.792C489.12 328.952 488.566 325.411 487.456 322.168C486.432 318.84 484.939 315.939 482.976 313.464C481.099 310.99 478.88 309.07 476.32 307.704C473.76 306.254 470.987 305.528 468 305.528C465.867 305.528 463.819 306.083 461.856 307.192C459.979 308.302 458.315 309.923 456.864 312.056C455.414 314.104 454.262 316.622 453.408 319.608C452.555 322.595 452.128 325.966 452.128 329.72C452.128 333.731 452.726 337.315 453.92 340.472C455.2 343.63 456.864 346.318 458.912 348.536C460.96 350.67 463.264 352.334 465.824 353.528C468.47 354.638 471.2 355.192 474.016 355.192Z" fill="url(#paint1_linear_109_148)"/>
<path d="M88.5482 427.451C3.93207 395.003 75.9015 304.811 111.099 267.696C112.172 266.564 113.777 266.206 115.252 266.716L124.27 269.837C127.009 270.784 127.879 274.223 125.948 276.384C109.11 295.214 73.0841 341.475 96.9058 379.818C121.376 419.205 189.829 391.051 215.709 375.022C217.976 373.618 220.003 374.79 218.537 377.017C211.876 387.142 188.07 405.956 183.631 409.134C183.196 409.445 182.646 409.598 182.112 409.628C48.0052 417.172 140.264 444.746 88.5482 427.451Z" fill="url(#paint2_linear_109_148)"/>
<path d="M42.1799 199.665C16.9799 197.265 13.0133 220.999 14.1799 233.165C21.1802 224.666 25.6797 223.165 36.6797 223.665C47.6797 224.165 56.6797 225.165 125.68 252.165C194.68 279.165 187.18 274.332 203.68 279.665C255.28 292.065 279.013 267.999 283.68 255.665C280.18 261.961 268.346 269.165 264.18 270.665C244.18 277.165 209.18 267.665 167.18 248.665C125.18 229.665 73.6799 202.665 42.1799 199.665Z" fill="url(#paint3_linear_109_148)"/>
<path d="M25.6802 251.665C22.5135 244.999 19.1802 231.465 31.1802 230.665C43.1802 229.865 68.1798 238.332 79.1797 242.665L133.68 264.165C146.987 269.187 171.566 278.105 186.647 282.542C190.854 283.567 194.611 284.457 197.68 285.165C195.508 284.968 191.587 283.995 186.647 282.542C167.095 277.776 137.822 270.091 122.68 264.165C99.6797 255.165 56.6797 240.665 44.6797 240.665C32.6797 240.665 29.1806 240.665 25.6802 251.665Z" fill="url(#paint4_linear_109_148)" stroke="url(#paint5_linear_109_148)"/>
<path d="M74.1797 113.666C58.6797 135.666 43.513 175.499 40.6797 186.166C59.4797 185.366 112.513 211.166 136.68 224.166C118.68 187.366 121.846 143.166 125.68 125.666C127.513 115.499 135.402 88.446 153.18 62.1655C176.18 28.1655 200.671 15.1654 205.68 11.6655C212.052 7.21224 170.513 26.3322 160.68 32.6656C150.013 39.1656 131.08 48.2655 108.68 70.6655C103.68 75.6655 93.3901 86.3991 74.1797 113.666Z" fill="url(#paint6_linear_109_148)"/>
<path d="M149.68 230.665C174.08 245.065 205.847 255.332 218.68 258.665C223.68 258.665 190.18 240.165 163.18 160.165C141.58 96.1653 175.847 55.832 195.68 43.6653C180.68 52.1653 156.68 68.6653 144.18 99.1653C136.841 117.073 134.038 133.296 133.68 137.665C129.18 192.665 140.847 213.999 149.68 230.665Z" fill="url(#paint7_linear_109_148)"/>
</g>
<defs>
<filter id="filter0_d_109_148" x="0.5" y="0.5" width="913.856" height="449.053" filterUnits="userSpaceOnUse" color-interpolation-filters="sRGB">
<feFlood flood-opacity="0" result="BackgroundImageFix"/>
<feColorMatrix in="SourceAlpha" type="matrix" values="0 0 0 0 0 0 0 0 0 0 0 0 0 0 0 0 0 0 127 0" result="hardAlpha"/>
<feOffset dy="3"/>
<feGaussianBlur stdDeviation="6.75"/>
<feComposite in2="hardAlpha" operator="out"/>
<feColorMatrix type="matrix" values="0 0 0 0 0 0 0 0 0 0 0 0 0 0 0 0 0 0 0.55 0"/>
<feBlend mode="normal" in2="BackgroundImageFix" result="effect1_dropShadow_109_148"/>
<feBlend mode="normal" in="SourceGraphic" in2="effect1_dropShadow_109_148" result="shape"/>
</filter>
<linearGradient id="paint0_linear_109_148" x1="307.506" y1="206.5" x2="307.506" y2="470" gradientUnits="userSpaceOnUse">
<stop offset="0.302559" stop-color="#5DD8FE"/>
<stop offset="0.604212" stop-color="#001452"/>
</linearGradient>
<linearGradient id="paint1_linear_109_148" x1="672.724" y1="207" x2="672.724" y2="430.5" gradientUnits="userSpaceOnUse">
<stop offset="0.377483" stop-color="#FDF587"/>
<stop offset="0.659903" stop-color="#FE5A13"/>
</linearGradient>
<linearGradient id="paint2_linear_109_148" x1="115" y1="169" x2="115" y2="471.5" gradientUnits="userSpaceOnUse">
<stop offset="0.300961" stop-color="#5DD8FE"/>
<stop offset="0.603911" stop-color="#001252"/>
</linearGradient>
<linearGradient id="paint3_linear_109_148" x1="-10.3203" y1="255.665" x2="283.68" y2="241.307" gradientUnits="userSpaceOnUse">
<stop offset="0.195025" stop-color="#014481"/>
<stop offset="0.357369" stop-color="#41CAF7"/>
<stop offset="0.514907" stop-color="#0B1F5B"/>
</linearGradient>
<linearGradient id="paint4_linear_109_148" x1="22.7129" y1="257.889" x2="197.68" y2="257.889" gradientUnits="userSpaceOnUse">
<stop stop-color="#011452"/>
<stop offset="1" stop-color="#2A324E"/>
</linearGradient>
<linearGradient id="paint5_linear_109_148" x1="22.7129" y1="257.889" x2="197.68" y2="257.889" gradientUnits="userSpaceOnUse">
<stop stop-color="#001351"/>
<stop offset="1" stop-color="#2D354E"/>
</linearGradient>
<linearGradient id="paint6_linear_109_148" x1="123.538" y1="0.665368" x2="123.538" y2="224.165" gradientUnits="userSpaceOnUse">
<stop offset="0.282422" stop-color="#046CA7"/>
<stop offset="0.49234" stop-color="#02BBF7"/>
<stop offset="0.752239" stop-color="#013170"/>
</linearGradient>
<linearGradient id="paint7_linear_109_148" x1="176.49" y1="43.6653" x2="176.49" y2="259.305" gradientUnits="userSpaceOnUse">
<stop stop-color="#FF4D27"/>
<stop offset="0.5" stop-color="#FDF35F"/>
<stop offset="1" stop-color="#FF4713"/>
</linearGradient>
</defs>
</svg>
